<svg width="36" height="37" viewBox="0 0 36 37" fill="none" xmlns="http://www.w3.org/2000/svg">
<path d="M18 0.461639C16.5964 0.461639 15.2303 0.622282 13.9197 0.926833C7.25502 2.47101 2.00937 7.71666 0.465194 14.3806C0.160642 15.6919 0 17.058 0 18.4616C0 28.4027 8.0589 36.4616 18 36.4616C19.4036 36.4616 20.7697 36.301 22.081 35.9964C28.745 34.4523 33.9906 29.2073 35.5355 22.544C35.84 21.2327 36.0007 19.8659 36.0007 18.4616C36.0007 8.52054 27.9411 0.461639 18 0.461639ZM18 29.7341C16.6714 29.7341 15.3969 29.5045 14.2135 29.0821C11.0341 27.9483 8.51406 25.4282 7.38019 22.2488C6.95783 21.0654 6.72825 19.7903 6.72825 18.4616C6.72825 12.2361 11.7744 7.18922 18 7.18922C19.3286 7.18922 20.6031 7.4188 21.7865 7.84116C24.9659 8.97503 27.4866 11.4951 28.6205 14.6745C29.0428 15.8579 29.2724 17.133 29.2724 18.4616C29.2724 24.6872 24.2256 29.7341 18 29.7341Z" fill="url(#paint0_linear_2001_2127)"/>
<path d="M17.9999 11.1966C13.9879 11.1966 10.7349 14.4496 10.7349 18.4617C10.7349 22.4737 13.9879 25.7267 17.9999 25.7267C22.012 25.7267 25.265 22.4737 25.265 18.4617C25.265 14.4496 22.0126 11.1966 17.9999 11.1966ZM17.9999 22.8546C15.5742 22.8546 13.607 20.888 13.607 18.4617C13.607 16.0353 15.5742 14.0688 17.9999 14.0688C20.4256 14.0688 22.3928 16.0353 22.3928 18.4617C22.3928 20.888 20.4263 22.8546 17.9999 22.8546Z" fill="#FEFCFE"/>
<path d="M21.7864 7.84117C20.603 7.41882 19.3285 7.18923 17.9999 7.18923C11.7743 7.18923 6.72814 12.2361 6.72814 18.4617C6.72814 19.7903 6.95773 21.0654 7.38008 22.2488C5.94166 21.7053 4.59293 20.8546 3.43497 19.6966C1.91556 18.1772 0.925597 16.3291 0.465088 14.3807C2.00926 7.71668 7.25491 2.47103 13.9196 0.926849C15.8674 1.38736 17.7154 2.37732 19.2348 3.89673C20.3921 5.05402 21.2429 6.40275 21.7864 7.84117Z" fill="url(#paint1_linear_2001_2127)"/>
<path d="M35.5353 22.544C33.9905 29.2073 28.7448 34.4523 22.0808 35.9965C20.1331 35.5359 18.285 34.546 16.7656 33.0266C15.6076 31.8686 14.7569 30.5199 14.2134 29.0821C15.3968 29.5045 16.6712 29.7341 17.9999 29.7341C24.2254 29.7341 29.2723 24.6872 29.2723 18.4616C29.2723 17.133 29.0427 15.8579 28.6203 14.6745C30.0581 15.218 31.4068 16.0687 32.5648 17.2267C34.0842 18.7461 35.0748 20.5955 35.5353 22.544Z" fill="url(#paint2_linear_2001_2127)"/>
<path d="M9.09641 31.133C11.1769 31.133 12.8635 29.4464 12.8635 27.3659C12.8635 25.2854 11.1769 23.5988 9.09641 23.5988C7.01592 23.5988 5.32935 25.2854 5.32935 27.3659C5.32935 29.4464 7.01592 31.133 9.09641 31.133Z" fill="url(#paint3_linear_2001_2127)"/>
<path d="M26.937 13.2923C29.0175 13.2923 30.7041 11.6057 30.7041 9.52522C30.7041 7.44472 29.0175 5.75815 26.937 5.75815C24.8565 5.75815 23.1699 7.44472 23.1699 9.52522C23.1699 11.6057 24.8565 13.2923 26.937 13.2923Z" fill="url(#paint4_linear_2001_2127)"/>
<defs>
<linearGradient id="paint0_linear_2001_2127" x1="30.5556" y1="6.59752" x2="5.83534" y2="29.957" gradientUnits="userSpaceOnUse">
<stop stop-color="#F38856"/>
<stop offset="0.23" stop-color="#F0625C"/>
<stop offset="1" stop-color="#5C3DAB"/>
</linearGradient>
<linearGradient id="paint1_linear_2001_2127" x1="16.8607" y1="3.5132" x2="2.79976" y2="17.4985" gradientUnits="userSpaceOnUse">
<stop stop-color="#F67986"/>
<stop offset="1" stop-color="#8951BA"/>
</linearGradient>
<linearGradient id="paint2_linear_2001_2127" x1="32.9423" y1="19.6812" x2="18.8814" y2="33.6671" gradientUnits="userSpaceOnUse">
<stop stop-color="#F67986"/>
<stop offset="1" stop-color="#8951BA"/>
</linearGradient>
<linearGradient id="paint3_linear_2001_2127" x1="11.8467" y1="24.7923" x2="6.34541" y2="29.9395" gradientUnits="userSpaceOnUse">
<stop stop-color="#A267B9"/>
<stop offset="1" stop-color="#704BB4"/>
</linearGradient>
<linearGradient id="paint4_linear_2001_2127" x1="29.2268" y1="7.38198" x2="25.4711" y2="10.8967" gradientUnits="userSpaceOnUse">
<stop stop-color="#F7A8A5"/>
<stop offset="0.97" stop-color="#D074C4"/>
<stop offset="1" stop-color="#CF76A9"/>
</linearGradient>
</defs>
</svg>
